HIERARCHY
ROOT Hips
{
  OFFSET 0.0 0.0 0.0
  CHANNELS 6 Xposition Yposition Zposition Zrotation Yrotation Xrotation
  JOINT LHipJoint
  {
    OFFSET 0.0 0.0 0.0
    CHANNELS 3 Zrotation Yrotation Xrotation
    JOINT LeftUpLeg
    {
      OFFSET 1.363059998 -1.794630051 0.839290023
      CHANNELS 3 Zrotation Yrotation Xrotation
      JOINT LeftLeg
      {
        OFFSET 2.448110104 -6.726130009 0.0
        CHANNELS 3 Zrotation Yrotation Xrotation
        JOINT LeftFoot
        {
          OFFSET 2.562200069 -7.039589882 0.0
          CHANNELS 3 Zrotation Yrotation Xrotation
          JOINT LeftToeBase
          {
            OFFSET 0.157639995 -0.433109999 2.322550058
            CHANNELS 3 Zrotation Yrotation Xrotation
            End Site
            {
              OFFSET 0.0 -0.0 1.189659953
            }
          }
        }
      }
    }
  }
  JOINT RHipJoint
  {
    OFFSET 0.0 0.0 0.0
    CHANNELS 3 Zrotation Yrotation Xrotation
    JOINT RightUpLeg
    {
      OFFSET -1.305520058 -1.794630051 0.839290023
      CHANNELS 3 Zrotation Yrotation Xrotation
      JOINT RightLeg
      {
        OFFSET -2.54253006 -6.985549927 0.0
        CHANNELS 3 Zrotation Yrotation Xrotation
        JOINT RightFoot
        {
          OFFSET -2.568259954 -7.056230068 0.0
          CHANNELS 3 Zrotation Yrotation Xrotation
          JOINT RightToeBase
          {
            OFFSET -0.164729998 -0.452589989 2.363149881
            CHANNELS 3 Zrotation Yrotation Xrotation
            End Site
            {
              OFFSET -0.0 -0.0 1.21081996
            }
          }
        }
      }
    }
  }
  JOINT LowerBack
  {
    OFFSET 0.0 0.0 0.0
    CHANNELS 3 Zrotation Yrotation Xrotation
    JOINT Spine
    {
      OFFSET 0.028270001 2.035589933 -0.193379998
      CHANNELS 3 Zrotation Yrotation Xrotation
      JOINT Spine1
      {
        OFFSET 0.05672 2.04885006 -0.042750001
        CHANNELS 3 Zrotation Yrotation Xrotation
        JOINT Neck
        {
          OFFSET 0.0 0.0 0.0
          CHANNELS 3 Zrotation Yrotation Xrotation
          JOINT Neck1
          {
            OFFSET -0.054170001 1.74624002 0.172020003
            CHANNELS 3 Zrotation Yrotation Xrotation
            JOINT Head
            {
              OFFSET 0.10407 1.761360049 -0.123970002
              CHANNELS 3 Zrotation Yrotation Xrotation
              End Site
              {
                OFFSET 0.0372 1.770439982 -0.062410001
              }
            }
          }
        }
        JOINT LeftShoulder
        {
          OFFSET 0.0 0.0 0.0
          CHANNELS 3 Zrotation Yrotation Xrotation
          JOINT LeftArm
          {
            OFFSET 3.362410069 1.200889945 -0.311210006
            CHANNELS 3 Zrotation Yrotation Xrotation
            JOINT LeftForeArm
            {
              OFFSET 4.982999802 -0.0 -0.0
              CHANNELS 3 Zrotation Yrotation Xrotation
              JOINT LeftHand
              {
                OFFSET 3.483560085 -0.0 -0.0
                CHANNELS 3 Zrotation Yrotation Xrotation
                JOINT LeftFingerBase
                {
                  OFFSET 0.0 0.0 0.0
                  CHANNELS 3 Zrotation Yrotation Xrotation
                  JOINT LeftHandIndex1
                  {
                    OFFSET 0.715260029 -0.0 -0.0
                    CHANNELS 3 Zrotation Yrotation Xrotation
                    End Site
                    {
                      OFFSET 0.576659977 -0.0 -0.0
                    }
                  }
                }
                JOINT LThumb
                {
                  OFFSET 0.0 0.0 0.0
                  CHANNELS 3 Zrotation Yrotation Xrotation
                  End Site
                  {
                    OFFSET 0.585470021 -0.0 0.585470021
                  }
                }
              }
            }
          }
        }
        JOINT RightShoulder
        {
          OFFSET 0.0 0.0 0.0
          CHANNELS 3 Zrotation Yrotation Xrotation
          JOINT RightArm
          {
            OFFSET -3.136600018 1.374050021 -0.404650003
            CHANNELS 3 Zrotation Yrotation Xrotation
            JOINT RightForeArm
            {
              OFFSET -5.241899967 -0.0 -0.0
              CHANNELS 3 Zrotation Yrotation Xrotation
              JOINT RightHand
              {
                OFFSET -3.444169998 -0.0 -0.0
                CHANNELS 3 Zrotation Yrotation Xrotation
                JOINT RightFingerBase
                {
                  OFFSET 0.0 0.0 0.0
                  CHANNELS 3 Zrotation Yrotation Xrotation
                  JOINT RightHandIndex1
                  {
                    OFFSET -0.622529984 -0.0 -0.0
                    CHANNELS 3 Zrotation Yrotation Xrotation
                    End Site
                    {
                      OFFSET -0.501900017 -0.0 -0.0
                    }
                  }
                }
                JOINT RThumb
                {
                  OFFSET 0.0 0.0 0.0
                  CHANNELS 3 Zrotation Yrotation Xrotation
                  End Site
                  {
                    OFFSET -0.509559989 -0.0 0.509559989
                  }
                }
              }
            }
          }
        }
      }
    }
  }
}
MOTION
Frames: 4
Frame Time: 0.0083333
0.0 28.081199646 0.0 -6.209402084 -9.231202126 -38.686203003 0.0 -0.0 0.0 3.329999685 -1.972099781 -29.712802887 11.070798874 17.969596863 63.011276245 0.906600058 -5.33370018 20.680303574 0.088699982 1.920799732 5.28690052 0.0 -0.0 0.0 25.500997543 3.170398951 -29.664798737 -5.824901104 -14.256505013 44.275009155 0.860000134 -18.248601913 2.334400415 -0.716299951 -5.408399582 15.077195168 3.786299706 0.398800373 36.189502716 -0.940400064 1.485299826 18.593595505 -3.395100117 1.043700218 2.456700325 -17.257404327 -11.557900429 16.265899658 7.129700661 -18.061395645 4.780398846 5.093800545 -9.412999153 1.119100094 0.0 -0.0 0.0 14.621903419 -32.044708252 -53.642601013 105.038482666 -59.127998352 -72.985595703 0.0 -0.0 1.12680006 25.496599197 -2.665800095 -1.270599961 -7.125 0.0 0.0 -0.841800153 27.026605606 0.367399961 0.0 -0.0 0.0 2.913297176 56.150211334 -43.381912231 -128.194702148 53.698188782 -92.377502441 0.0 -0.0 8.720100403 -35.809902191 -21.726202011 14.95320034 7.125 -0.0 0.0 -7.770699501 -55.979095459 2.101999283 
0.003200531 28.080400467 0.003900051 -6.030102253 -9.287799835 -38.670597076 0.0 -0.0 0.0 3.114299774 -2.058899879 -29.832702637 10.665699005 17.767501831 61.690891266 0.860900104 -5.165100098 20.137304306 0.073400013 1.748300195 4.810400486 0.0 -0.0 0.0 25.40489769 3.23630023 -29.913105011 -5.833499908 -14.26499939 44.309902191 0.84160012 -17.957304001 2.109999895 -0.620000005 -5.039099693 14.020096779 3.16809988 0.329099745 36.35590744 -0.711500108 1.216700196 17.910800934 -2.761899233 0.811900139 1.604900002 -18.952497482 -10.725101471 18.223501205 7.278698921 -17.592798233 4.383500099 5.520499706 -9.220901489 0.817499876 0.0 -0.0 0.0 12.690598488 -30.932609558 -51.882900238 105.465301514 -59.076690674 -73.351799011 0.0 -0.0 0.432999969 25.156801224 -2.657799959 -1.247600079 -7.125 0.0 0.0 -1.101900339 27.043506622 0.480500072 0.0 -0.0 0.0 4.56019783 56.597587585 -40.901691437 -128.250305176 53.677303314 -92.422302246 0.0 -0.0 8.639800072 -35.670902252 -21.95359993 15.021597862 7.125 -0.0 0.0 -7.591300964 -56.208309174 2.095299244 
0.005199432 28.051900864 0.031100035 -5.84679985 -9.178699493 -38.674995422 0.0 -0.0 0.0 2.853199959 -2.301300526 -30.09960556 10.322897911 17.587493896 60.562202454 0.823399961 -4.876997948 19.585300446 0.054899994 1.511399746 4.157100201 0.0 -0.0 0.0 25.161804199 3.298299789 -30.269306183 -5.878700256 -14.309802055 44.493003845 0.815499902 -17.725301743 2.157600641 -0.444999933 -4.279999733 11.865598679 2.611999989 0.34610039 36.475494385 -0.583299935 1.070600033 17.540899277 -2.297699213 0.674599946 1.133400083 -19.683298111 -10.537199974 17.86979866 6.63449955 -17.410400391 5.731300354 5.348500252 -9.17579937 1.268399715 0.0 -0.0 0.0 11.71009922 -30.117801666 -50.926609039 105.738395691 -59.043106079 -73.586082458 0.0 0.0 -0.167800024 24.96280098 -2.40320015 -1.11830008 -7.125 0.0 0.0 -1.249800205 27.328701019 0.536599934 0.0 -0.0 0.0 5.727601528 56.719993591 -39.391399384 -128.298721313 53.658988953 -92.46131897 0.0 -0.0 8.420399666 -35.437591553 -21.873998642 14.84959507 7.125 -0.0 0.0 -7.33090353 -56.061706543 1.996802449 
0.003799438 28.046199799 0.039499998 -5.773301601 -9.124798775 -38.686000824 0.0 -0.0 0.0 2.703600168 -2.554000139 -30.265100479 9.968401909 17.392002106 59.382701874 0.797900021 -4.496698856 19.089597702 0.059599999 1.575200081 4.33300066 0.0 -0.0 0.0 25.100099564 3.291402578 -30.464002609 -5.913501263 -14.344003677 44.633701324 0.799699903 -17.558700562 2.138600111 -0.407599926 -4.098699093 11.354397774 2.892299652 0.504000425 36.655090332 -0.867300034 1.352400184 18.00689888 -2.822600603 0.872300148 1.616700172 -18.411302567 -11.078900337 17.871599197 7.150399685 -17.890697479 4.413699627 5.378799438 -9.353399277 0.857900023 0.0 -0.0 0.0 13.238500595 -30.532499313 -52.380905151 105.778511047 -59.038101196 -73.620407104 0.0 0.0 -0.139599994 24.629297256 -2.126099586 -0.974399626 -7.125 0.0 0.0 -1.506100416 27.640199661 0.635700047 0.0 -0.0 0.0 4.089299202 55.730892181 -41.852096558 -128.584197998 53.550800323 -92.691108704 0.0 -0.0 8.079602242 -34.981494904 -22.651002884 15.081599236 7.125 -0.0 0.0 -6.722498417 -56.844192505 1.957398653 
